# xmcd
#
# Track frame offsets: 
#        150
#        19451
#        36731
#        53925
#        78272
#        95350
#        113151
#        123449
#        150518
#        164913
#        191966
#        204516
#        222692
#        236038
#        252477
#        267913
#        282151
#        295591
#        326601
#        344357
#
# Disc length: 4750 seconds
#
# Revision: 0
# Processed by: cddbd v1.5.2PL0 Copyright (c) Steve Scherf et al.
# Submitted via: ExactAudioCopy v0.95b3
#
DISCID=3e128c14
DTITLE=George Smith and Bacon Fat - The Complete Horizon Sessions CD1
DYEAR=2006
DGENRE=
TTITLE0=1.Up The Line
TTITLE1=2.Boom Boom (Out Goes The Lights)
TTITLE2=3.Small's On 53rd
TTITLE3=4.She's A Wrong Woman
TTITLE4=5.I Need Your Love
TTITLE5=6.Juicy Harmonica
TTITLE6=7.Nobody But You
TTITLE7=8.Telephone Blues
TTITLE8=9.You're So Fine
TTITLE9=10.Too Late
TTITLE10=11.Evil
TTITLE11=12.Blues Feeling (Remix Version)
TTITLE12=13.Off The Wall (Previously Unreleased)
TTITLE13=14.Ah'W Baby (Previously Unreleased)
TTITLE14=15.Mellow Down Easy (Previously Unreleased)
TTITLE15=16.Blues With A Feeling (Previously Unreleased)
TTITLE16=17.Tight Dress (Previously Unreleased)
TTITLE17=18.I've Had My Fun (Previously Unreleased)
TTITLE18=19.Help Me (Previously Unreleased)
TTITLE19=20.My Babe Pt. 1 (Previously Unreleased)
EXTD=
EXTT0=
EXTT1=
EXTT2=
EXTT3=
EXTT4=
EXTT5=
EXTT6=
EXTT7=
EXTT8=
EXTT9=
EXTT10=
EXTT11=
EXTT12=
EXTT13=
EXTT14=
EXTT15=
EXTT16=
EXTT17=
EXTT18=
EXTT19=
PLAYORDER=
